<?xml version="1.0" encoding="UTF-8"?><svg xmlns="http://www.w3.org/2000/svg" xmlns:xlink="http://www.w3.org/1999/xlink" viewBox="0 0 5819.59 3286.07"><defs><clipPath id="clippath"><rect x="0" y="0" width="5819.59" height="3286.07" fill="none"/></clipPath><linearGradient id="linear-gradient" x1="2909.79" y1="-768.59" x2="2909.79" y2="4882.85" gradientTransform="translate(0 3286.07) scale(1 -1)" gradientUnits="userSpaceOnUse"><stop offset="0" stop-color="#00477b"/><stop offset=".53" stop-color="#00284f"/><stop offset="1" stop-color="#005995"/></linearGradient><linearGradient id="linear-gradient-2" x1="6075.09" y1="-1750.51" x2="3146.47" y2="1178.1" gradientTransform="translate(7889.97 1415.71) rotate(-180) scale(1 -1)" gradientUnits="userSpaceOnUse"><stop offset="0" stop-color="#dadadb"/><stop offset=".54" stop-color="#bcbec0" stop-opacity=".5"/><stop offset="1" stop-color="#6d6e71" stop-opacity="0"/></linearGradient><linearGradient id="linear-gradient-3" x1="10398.59" y1="-2006.97" x2="6920.86" y2="1470.76" gradientTransform="translate(11581.61 1371.73) rotate(-180) scale(1 -1)" xlink:href="#linear-gradient-2"/><linearGradient id="linear-gradient-4" x1="6975.13" y1="874.73" x2="5452.5" y2="2397.35" gradientTransform="translate(11954.25 -1163.94) rotate(-180) scale(1 -1)" xlink:href="#linear-gradient-2"/><linearGradient id="linear-gradient-5" x1="6697.22" y1="695.76" x2="5174.6" y2="2218.38" gradientTransform="translate(11954.25 -1163.94) rotate(-180) scale(1 -1)" xlink:href="#linear-gradient-2"/><linearGradient id="linear-gradient-6" x1="10123.05" y1="-1691.4" x2="8756.94" y2="-325.29" gradientTransform="translate(4094.05 12262.92) rotate(-90) scale(1 -1)" xlink:href="#linear-gradient-2"/><linearGradient id="linear-gradient-7" x1="9842.33" y1="-1833.15" x2="8476.22" y2="-467.05" gradientTransform="translate(4094.05 12262.92) rotate(-90) scale(1 -1)" xlink:href="#linear-gradient-2"/><linearGradient id="linear-gradient-8" x1="10680.99" y1="-1971.95" x2="8848.2" y2="-139.16" gradientTransform="translate(4094.05 12262.92) rotate(-90) scale(1 -1)" xlink:href="#linear-gradient-2"/></defs><g fill="none" isolation="isolate"><g id="Livello_2"><rect y="0" width="5819.59" height="3286.07" fill="#231f20"/></g><g id="Design"><g fill="none" opacity=".29"><g clip-path="url(#clippath)" fill="none"><rect x="0" y="0" width="5819.59" height="3286.07" transform="translate(5819.59 3286.07) rotate(180)" fill="url(#linear-gradient)"/><polygon points="3250.37 4867.58 5819.59 3616.3 5819.59 -97 3250.37 -391.19 -1646.07 -391.19 3250.37 4867.58" fill="url(#linear-gradient-2)" mix-blend-mode="overlay" opacity=".5"/><polygon points="3804.58 6190.73 5864.21 3543.34 5864.21 -158.43 3804.58 -864.51 -2764.56 -864.51 3804.58 6190.73" fill="url(#linear-gradient-3)" mix-blend-mode="overlay" opacity=".5"/><polygon points="6275.05 2551.19 6275.05 -537.74 3398.95 -537.74 6275.05 2551.19" fill="url(#linear-gradient-4)" mix-blend-mode="overlay" opacity=".5"/><polygon points="6552.96 2372.22 6552.96 -716.71 3676.85 -716.71 6552.96 2372.22" fill="url(#linear-gradient-5)" mix-blend-mode="overlay" opacity=".5"/><rect x="0" y="0" width="5819.59" height="3286.07" transform="translate(5819.59 3286.07) rotate(180)" fill="none"/><rect x="0" y="0" width="5819.59" height="3286.07" transform="translate(5819.59 3286.07) rotate(180)" fill="none"/><polygon points="3432.9 3498.47 5879.49 3498.47 5879.49 593.19 3432.9 3498.47" fill="url(#linear-gradient-6)" mix-blend-mode="overlay" opacity=".5"/><polygon points="3574.66 3779.19 6021.25 3779.19 6021.25 873.91 3574.66 3779.19" fill="url(#linear-gradient-7)" mix-blend-mode="overlay" opacity=".5"/><polygon points="2909.79 3404.64 6192.17 3404.64 6192.17 -493.12 2909.79 3404.64" fill="url(#linear-gradient-8)" mix-blend-mode="overlay" opacity=".5"/></g></g></g></g></svg>